# xmcd
#
# Track frame offsets: 
#        150
#        7836
#        28653
#        50414
#        66038
#        82451
#        99017
#        118450
#        139183
#        160527
#
# Disc length: 2432 seconds
#
# Revision: 1
# Processed by: cddbd v1.5.2PL0 Copyright (c) Steve Scherf et al.
# Submitted via: ExactAudioCopyFreeDBPlugin 1.0
#
DISCID=7c097e0a
DTITLE=Various Artist - "NO GAME NO LIFE" COMPLETE SONGS NO SONG NO LIFE
DYEAR=2017
DGENRE=Soundtrack
TTITLE0=藤澤慶昌 - Overture
TTITLE1=白(CV:茅野愛衣) - オラシオン
TTITLE2=ジブリール(CV:田村ゆかり) - Yes, my master my lord
TTITLE3=初瀬いづな(CV:沢城みゆき) - おねがい☆すにゃいぱー
TTITLE4=白(CV:茅野愛衣)、ステファニー・ドーラ(CV:日笠陽子)、ジブリール(CV:田村ゆかり) - Bias Hacker
TTITLE5=ステファニー・ドーラ(CV:日笠陽子) - Light of Hope
TTITLE6=白(CV:茅野愛衣) - ＝ONESELF
TTITLE7=鈴木このみ - オラシオン(カバー)
TTITLE8=鈴木このみ - This game
TTITLE9=鈴木このみ - THERE IS A REASON
EXTD=
EXTT0=
EXTT1=
EXTT2=
EXTT3=
EXTT4=
EXTT5=
EXTT6=
EXTT7=
EXTT8=
EXTT9=
PLAYORDER=
